<?xml version="1.0" encoding="iso-8859-1"?>
<!-- Generator: Adobe Illustrator 23.0.3, SVG Export Plug-In . SVG Version: 6.00 Build 0)  -->
<svg version="1.1" id="Layer_1" xmlns="http://www.w3.org/2000/svg" xmlns:xlink="http://www.w3.org/1999/xlink" x="0px" y="0px"
	 viewBox="0 0 50 50" style="enable-background:new 0 0 50 50;" xml:space="preserve">
<g>
	<path d="M14.52,38.987l-2.261-0.994c-0.75-0.318-1.48-0.683-2.184-1.092c0.494-0.615,1.159-1.071,1.911-1.311
		c0.747-0.241,1.437-0.633,2.026-1.152c0.085-0.081,0.132-0.194,0.131-0.311c-0.004-0.165-0.082-0.32-0.213-0.42
		c-0.156-0.12-0.349-0.184-0.546-0.18h-0.317c-0.698,0.524-1.462,0.954-2.272,1.278c-0.803,0.331-1.564,0.756-2.266,1.267
		c-0.341,0.305-0.539,0.739-0.546,1.196c0.04,0.173,0.163,0.316,0.328,0.382c0.147,0.049,0.3,0.109,0.448,0.169
		c1.493,0.633,2.894,1.314,4.205,2.042c0.174,0.126,0.338,0.265,0.491,0.415c0.1,0.044,0.208,0.066,0.317,0.066
		c0.269,0.002,0.53-0.091,0.737-0.262c0.211-0.15,0.322-0.404,0.289-0.661C14.807,39.23,14.695,39.057,14.52,38.987z"/>
	<path d="M36.652,33.996l0.076,0.027l-0.792-0.344c-0.267-0.121-0.554-0.191-0.846-0.208c-0.08-0.011-0.161-0.011-0.24,0
		c-0.156,0.014-0.3,0.091-0.399,0.213c-0.119,0.101-0.195,0.243-0.213,0.399c-0.011,0.034-0.011,0.07,0,0.104
		c0.352,0.372,0.803,0.635,1.3,0.759c0.497,0.153,0.994,0.3,1.48,0.437c0.492,0.163,0.91,0.496,1.18,0.939
		c0.005,0.02,0.005,0.04,0,0.06c0,0.093-0.224,0.246-0.655,0.464c-0.218,0.126-0.546,0.404-1.092,0.819
		c-0.341,0.279-0.706,0.525-1.092,0.737c-0.328,0.146-0.615,0.372-0.835,0.655c-0.005,0.005-0.01,0.01-0.014,0.016
		c-0.174,0.2-0.153,0.504,0.047,0.678c0.104,0.1,0.243,0.155,0.388,0.153c0.103-0.002,0.204-0.028,0.295-0.076
		c0.704-0.444,1.381-0.931,2.026-1.458c0.654-0.542,1.336-1.051,2.042-1.524c0.393-0.24,0.584-0.491,0.584-0.748
		c-0.013-0.172-0.106-0.328-0.251-0.42C38.779,34.904,37.759,34.33,36.652,33.996z"/>
	<path d="M22.743,33.494v-0.011c-0.186-0.289-0.419-0.546-0.688-0.759c-0.216-0.15-0.474-0.229-0.737-0.224
		c-0.088-0.002-0.176,0.015-0.257,0.049l-1.638,0.546c-0.104,0.032-0.213,0.047-0.322,0.044c-0.194,0.014-0.387-0.04-0.546-0.153
		c-0.199-0.173-0.367-0.378-0.497-0.606l-0.453,0.306c0.192,0.322,0.44,0.606,0.732,0.841c0.23,0.144,0.499,0.215,0.77,0.202
		c0.139-0.001,0.276-0.021,0.41-0.06l1.513-0.546c0.103-0.04,0.212-0.06,0.322-0.06c0.166-0.011,0.331,0.033,0.47,0.126
		c0.191,0.156,0.357,0.34,0.491,0.546L22.743,33.494z"/>
	<path d="M27.401,42.275c-2.474-0.137-2.96,2.01-1.234,3.549c2.496,2.244,8.568,1.753,7.738-3.216
		C30.858,45.196,29.586,42.389,27.401,42.275z"/>
	<path d="M21.957,42.275c-2.184,0.115-3.457,2.921-6.504,0.333c-0.83,4.969,5.242,5.461,7.738,3.216
		C24.917,44.284,24.431,42.138,21.957,42.275z"/>
	<path d="M20.395,35.11c-0.44-0.017-0.87,0.14-1.196,0.437c-0.369,0.362-0.525,0.888-0.415,1.393
		c0.053,0.475,0.243,0.924,0.546,1.294c0.257,0.344,0.662,0.547,1.092,0.546c0.282-0.005,0.557-0.08,0.803-0.218
		c0.491-0.295,0.732-0.852,0.732-1.687c0.063-0.548-0.135-1.094-0.535-1.474C21.118,35.2,20.759,35.099,20.395,35.11z
		 M20.373,37.376c-0.302,0-0.546-0.244-0.546-0.546c0-0.302,0.244-0.546,0.546-0.546c0.302,0,0.546,0.244,0.546,0.546
		C20.919,37.132,20.675,37.376,20.373,37.376z"/>
	<path d="M25.905,41.559c0.112-0.09,0.216-0.188,0.311-0.295c0.09-0.102,0.171-0.211,0.24-0.328c0.066-0.103,0.125-0.21,0.175-0.322
		c0.039-0.081,0.07-0.165,0.093-0.251v-0.049c-0.011-0.015-0.02-0.032-0.027-0.049c-0.142,0.219-0.319,0.412-0.524,0.573
		c-0.157,0.148-0.343,0.261-0.546,0.333c-0.205,0.071-0.422,0.106-0.639,0.104c-0.185,0.003-0.369-0.023-0.546-0.076
		c-0.152-0.048-0.294-0.122-0.42-0.218c-0.128-0.103-0.244-0.22-0.344-0.349c-0.105-0.142-0.197-0.294-0.273-0.453
		c-0.012,0.012-0.021,0.027-0.027,0.044c0,0,0,0.033,0,0.044c0.075,0.209,0.17,0.41,0.284,0.601
		c0.103,0.183,0.232,0.351,0.382,0.497c0.135,0.141,0.294,0.258,0.47,0.344c0.173,0.073,0.358,0.114,0.546,0.12l0.022,0.022
		c0.151,0.001,0.301-0.027,0.442-0.082C25.659,41.714,25.787,41.644,25.905,41.559z"/>
	<path d="M27.674,35.514c-0.367,0.363-0.521,0.889-0.41,1.393c0.05,0.476,0.24,0.926,0.546,1.294
		c0.258,0.344,0.662,0.546,1.092,0.546c0.282-0.004,0.558-0.079,0.803-0.218c0.537-0.384,0.82-1.032,0.737-1.687
		c-0.027-0.737-0.202-1.234-0.546-1.474c-0.304-0.202-0.662-0.305-1.027-0.295C28.429,35.057,28,35.216,27.674,35.514z
		 M29.242,36.891c0,0.302-0.245,0.546-0.546,0.546c-0.302,0-0.546-0.244-0.546-0.546c0-0.302,0.244-0.546,0.546-0.546
		C28.997,36.344,29.242,36.589,29.242,36.891z"/>
	<path d="M15.79,30.458c2.623-1.274,8.763-4.257,17.236,1.041c0.162,0.101,0.345,0.152,0.53,0.152c0.135,0,0.271-0.027,0.398-0.083
		c0.302-0.131,0.52-0.402,0.583-0.725c0.205-1.043,0.279-2.717,0.212-4.08l0.018-0.087c-0.195-0.429-1.173-1.219-3.347-1.911
		c-5.219-1.658-14.285-1.717-17.96,2.413l0.947,2.709c0.094,0.27,0.299,0.486,0.563,0.594C15.235,30.592,15.533,30.583,15.79,30.458
		z"/>
	<path d="M9.955,16.225l0.101,0.264c0.771,1.809,1.331,3.709,1.666,5.648c0.017,0.098,0.048,0.192,0.092,0.28
		c0.329,0.652,0.586,1.34,0.773,2.078c0.053,0.184,0.11,0.374,0.166,0.562c1.062-0.934,2.341-1.642,3.744-2.166
		c-0.872-2.258-1.419-4.863-1.897-7.2c-0.606-2.971-1.125-5.504-2.124-6.302c-0.119-0.161-0.198-0.348-0.229-0.546
		c-0.035-0.378,0.043-0.758,0.224-1.092c0.172-0.372,0.437-0.694,0.77-0.934c0.21-0.145,0.452-0.238,0.704-0.273v0.049
		c-0.251,0.035-0.491,0.128-0.699,0.273c-0.221,0.276-0.418,0.57-0.59,0.879c-0.491,0.983,0.546,0.934,0.934,1.469
		c1.01,0.814,1.092,3.484,1.704,6.466c0.474,2.315,0.753,4.894,1.416,7.134c0.771-0.275,1.575-0.497,2.404-0.666
		c-1.095-2.527-1.361-5.46-1.597-8.182c-0.262-2.916-0.497-5.592-1.709-7.235c-0.206-0.23-0.311-0.533-0.289-0.841
		c0.024-0.143,0.105-0.271,0.224-0.355c0.134-0.094,0.29-0.151,0.453-0.164c0.522-0.042,1.042,0.101,1.469,0.404l-0.021,0.024
		c0.007,0.005,0.014,0.008,0.021,0.014H17.63l0.012-0.014c-0.301-0.242-0.696-0.331-1.071-0.237c-0.15,0.016-0.295,0.069-0.42,0.153
		c-0.111,0.073-0.187,0.19-0.208,0.322c0,0.197-0.153,0.229,0,0.595c1.223,1.638,2.184,4.407,2.414,7.328
		c0.24,2.713,0.081,5.637,0.937,8.153c0.93-0.181,1.883-0.301,2.845-0.366c-1.102-3.659-1.806-7.429-2.061-11.248
		c-0.123-1.564,0.003-3.138,0.371-4.664c0.355-1.212,0.978-2.01,1.944-2.151c0.353-0.046,0.711-0.02,1.054,0.076V3.81
		c-0.348-0.064-0.705-0.053-1.048,0.033c-0.808,0.186-0.71,0.688-1.24,1.829c-0.413,1.467-0.547,2.999-0.393,4.516
		c0.54,3.532,1.177,8.054,1.78,11.531c1.008-0.052,2.019-0.049,3.01,0.008c-0.789-5.84-1.464-12.637,1.911-17.617h0.044
		c-1.48,3.948-1.682,11.467-1.857,13.892c-0.059,0.813,0,2.328,0.067,3.733c1.42,0.089,2.794,0.279,4.058,0.543
		c-0.015-2.49,0.15-4.978,0.522-7.443c0.538-3.55,1.762-6.961,3.604-10.042v0.049c-0.535,4.063-2.577,5.963-3.336,9.982
		c-0.227,2.37-0.464,5.001-0.625,7.492c0.737,0.159,1.44,0.34,2.084,0.544c0.573,0.182,1.175,0.408,1.756,0.674
		c0.384-6.372,3.653-13.531,5.495-13.919c-1.54,4.743-3.342,9.385-5.185,14.07c0.489,0.242,0.948,0.518,1.349,0.826
		c0.816-1.492,2.006-2.942,3.165-4.351c2.125-2.583,4.322-5.254,4.132-8.239c-0.009-0.136-0.045-0.269-0.106-0.39
		c-0.313-0.616-0.662-1.216-1.096-1.889l-0.085-0.134c-0.101-0.158-0.202-0.315-0.306-0.464c-0.078-0.112-0.157-0.217-0.236-0.321
		L40.824,8.61c-0.159-0.212-0.317-0.423-0.48-0.623c-0.088-0.106-0.175-0.207-0.291-0.338c-0.181-0.208-0.361-0.41-0.545-0.601
		l-0.243-0.246c-0.213-0.211-0.427-0.411-0.637-0.595l-0.153-0.133c-2.659-2.268-5.39-2.865-7.053-3.229l-0.927-0.208
		c-2.888-0.554-5.994-1.004-9.221-0.542c-1.186,0.258-2.333,0.675-3.357,1.213c-1.29,0.586-2.624,1.192-3.83,1.278
		c-0.061,0.004-0.12,0.014-0.179,0.029c-1.686,0.435-3.139,1.476-4.075,2.906L9.681,7.741C9.65,7.787,9.622,7.834,9.598,7.884
		c-0.825,1.726-1.045,3.704-0.6,5.638C9.284,14.457,9.625,15.355,9.955,16.225z"/>
</g>
</svg>